<svg version="1.2" xmlns="http://www.w3.org/2000/svg" viewBox="0 0 1600 1200" width="1600" height="1200">
	<title>Icons Weather-ai</title>
	<defs>
		<linearGradient id="g1" x1="525.6" y1="698.4" x2="525.6" y2="759.6" gradientUnits="userSpaceOnUse">
			<stop offset="0" stop-color="#70a7d9"/>
			<stop offset="1" stop-color="#3190ce"/>
		</linearGradient>
		<linearGradient id="g2" x1="482" y1="746.4" x2="482" y2="820.9" gradientUnits="userSpaceOnUse">
			<stop offset="0" stop-color="#70a7d9"/>
			<stop offset="1" stop-color="#3190ce"/>
		</linearGradient>
		<linearGradient id="g3" x1="494.8" y1="781.6" x2="494.8" y2="807.7" gradientUnits="userSpaceOnUse">
			<stop offset="0" stop-color="#70a7d9"/>
			<stop offset="1" stop-color="#3190ce"/>
		</linearGradient>
	</defs>
	<style>
		.s0 { fill: url(#g1) } 
		.s1 { fill: url(#g2) } 
		.s2 { fill: url(#g3) } 
	</style>
	<g id="Layer 1">
		<path id="&lt;Path&gt;" class="s0" d="m573.5 745.9c-2 4.1-5.2 7.5-9 9.9-3.9 2.4-8.3 3.7-12.8 3.8-4.6-0.1-9-1.4-12.9-3.8-3.8-2.4-7-5.8-9-9.9-1.9-4-2.7-8.4-2.3-12.9q0.1-0.8 0.5-1.6 0.4-0.8 1.1-1.4 0.6-0.5 1.5-0.8 0.8-0.3 1.7-0.2 0.8 0.1 1.6 0.5 0.8 0.4 1.4 1 0.5 0.7 0.8 1.5 0.3 0.9 0.2 1.7c-0.3 2.9 0.2 5.8 1.4 8.4 1.4 2.5 3.4 4.7 5.8 6.2 2.4 1.6 5.2 2.4 8.1 2.5 2.9-0.1 5.7-0.9 8.1-2.5 2.5-1.5 4.4-3.7 5.8-6.2 4-8.1-0.3-22.9-13.9-33.9-3.6 2.9-6.8 6.3-9.4 10.1q-0.5 0.8-1.2 1.4-0.7 0.5-1.6 0.7-0.9 0.2-1.8 0.1-0.9-0.2-1.7-0.7-0.7-0.5-1.2-1.3-0.5-0.8-0.6-1.7-0.2-0.9 0.1-1.8 0.2-0.9 0.8-1.6c3.8-5.5 8.6-10.3 14.1-14.2 0.7-0.5 1.6-0.8 2.5-0.8 0.9 0 1.8 0.3 2.5 0.8 17.9 12.7 25.9 32.8 19.4 46.7z"/>
		<path id="&lt;Path&gt;" class="s1" d="m543.8 787.2c0.8 0.8 1.2 1.9 1.2 3.1 0.3 4.9-0.7 9.8-3 14.2-2.7 4.9-6.7 9-11.6 11.9-4.8 2.8-10.3 4.4-16 4.5-5.6-0.1-11.1-1.7-16-4.6-4.8-2.9-8.8-7-11.6-11.9-8.8-16.8 2.3-41.9 25.2-57.2 0.7-0.5 1.6-0.8 2.4-0.8 0.9 0 1.8 0.3 2.5 0.8 9.1 5.9 16.7 13.9 22.2 23.3q0.4 0.8 0.5 1.6 0.2 0.9-0.1 1.8-0.2 0.8-0.7 1.5-0.6 0.7-1.3 1.1-0.8 0.5-1.6 0.6-0.9 0.1-1.8-0.2-0.8-0.2-1.5-0.7-0.7-0.5-1.1-1.3c-4.3-7.4-10.1-13.7-17.1-18.7-19.3 14.1-25.4 33.6-19.8 44.2 2 3.5 4.9 6.4 8.4 8.5 3.4 2 7.4 3.1 11.4 3.2 4.1-0.1 8.1-1.2 11.5-3.3 3.5-2.1 6.4-5 8.4-8.6 1.6-3.1 2.2-6.5 2-9.9 0-1.2 0.5-2.3 1.3-3.1 0.8-0.9 1.9-1.3 3.1-1.3 1.1 0 2.2 0.4 3.1 1.3z"/>
		<path id="&lt;Path&gt;" class="s2" d="m503.4 782q0.8 0.4 1.3 1.1 0.6 0.7 0.8 1.5 0.3 0.9 0.2 1.8c-0.2 1.7 0 3.4 0.5 5.1 0.5 1.6 1.4 3.1 2.6 4.4 1.7 1.7 3.9 2.7 6.3 3.1 1.1 0.1 2.2 0.6 3 1.5 0.7 0.9 1.1 2 1 3.2-0.1 1.2-0.6 2.2-1.5 3-0.9 0.8-2 1.1-3.2 1.1h-0.6c-4.3-0.7-8.2-2.7-11.2-5.7-2.1-2.2-3.7-4.9-4.7-7.8-1-2.9-1.3-5.9-0.9-8.9 0.1-1.2 0.7-2.2 1.6-3 0.9-0.7 2-1 3.2-0.9q0.8 0.1 1.6 0.5z"/>
	</g>
</svg>