<svg version="1.2" xmlns="http://www.w3.org/2000/svg" viewBox="0 0 1600 1200" width="1600" height="1200">
	<title>Icons Weather-ai</title>
	<defs>
		<linearGradient id="g1" x1="1065.3" y1="490.2" x2="1065.3" y2="407.2" gradientUnits="userSpaceOnUse">
			<stop offset="0" stop-color="#8fcbee"/>
			<stop offset="1" stop-color="#d1dbef"/>
		</linearGradient>
		<linearGradient id="g2" x1="1062.5" y1="407.7" x2="1062.5" y2="445.9" gradientUnits="userSpaceOnUse">
			<stop offset="0" stop-color="#f9c46c"/>
			<stop offset="1" stop-color="#f16d53"/>
		</linearGradient>
		<linearGradient id="g3" x1="1115.8" y1="429" x2="1115.8" y2="437.7" gradientUnits="userSpaceOnUse">
			<stop offset="0" stop-color="#f9c46c"/>
			<stop offset="1" stop-color="#f16d53"/>
		</linearGradient>
		<linearGradient id="g4" x1="1080.8" y1="389.6" x2="1080.8" y2="402.7" gradientUnits="userSpaceOnUse">
			<stop offset="0" stop-color="#f9c46c"/>
			<stop offset="1" stop-color="#f16d53"/>
		</linearGradient>
		<linearGradient id="g5" x1="1105.1" y1="401.4" x2="1105.1" y2="413" gradientUnits="userSpaceOnUse">
			<stop offset="0" stop-color="#f9c46c"/>
			<stop offset="1" stop-color="#f16d53"/>
		</linearGradient>
		<linearGradient id="g6" x1="1054.7" y1="401.4" x2="1054.7" y2="413" gradientUnits="userSpaceOnUse">
			<stop offset="0" stop-color="#f9c46c"/>
			<stop offset="1" stop-color="#f16d53"/>
		</linearGradient>
	</defs>
	<style>
		.s0 { fill: url(#g1) } 
		.s1 { fill: url(#g2) } 
		.s2 { fill: url(#g3) } 
		.s3 { fill: url(#g4) } 
		.s4 { fill: url(#g5) } 
		.s5 { fill: url(#g6) } 
	</style>
	<g id="Layer 1">
		<path id="&lt;Compound Path&gt;" fill-rule="evenodd" class="s0" d="m1118.8 454.5c2.1 3.5 3.3 7.5 3.4 11.7-0.4 6.6-3.3 12.9-8.2 17.4-4.9 4.5-11.4 6.9-18.1 6.6h-4.4c-1.1 0-2.2-0.4-3.1-1.3-0.8-0.8-1.2-1.9-1.2-3.1 0-1.1 0.4-2.2 1.2-3 0.9-0.9 2-1.3 3.1-1.3h4.4c4.4 0.2 8.6-1.2 11.9-4.1 3.3-2.9 5.3-6.9 5.6-11.2-0.1-3.1-1.2-6.1-3-8.6-1.9-2.5-4.4-4.4-7.4-5.4q-2.2-0.9-4.7-1.2c-0.8-0.1-1.6-0.5-2.2-1-0.6-0.5-1.1-1.2-1.4-2-2.4-5.8-6.4-10.7-11.7-14.1-5.3-3.4-11.5-5.1-17.7-4.9-16.9 0-30.6 11.7-30.6 26.2 0 1.2-0.5 2.3-1.3 3.1-0.8 0.8-2 1.3-3.1 1.3-3.2-0.3-6.4 0.7-8.8 2.8-2.5 2-4 5-4.3 8.1 0.3 3.2 1.8 6.1 4.3 8.2 2.4 2 5.6 3 8.8 2.8h43.7c1.2 0 2.3 0.4 3.1 1.3 0.8 0.8 1.3 1.9 1.3 3 0 1.2-0.5 2.3-1.3 3.1-0.8 0.9-1.9 1.3-3.1 1.3h-43.7c-5.5 0.3-10.9-1.6-15-5.3-4.1-3.7-6.6-8.9-6.9-14.4 0.2-4.8 2.1-9.3 5.4-12.9 3.2-3.5 7.6-5.8 12.4-6.4 2.2-17.2 18.5-30.6 38.2-31 3.2-5.4 8.1-9.5 14-11.5 5.8-2.1 12.2-2 18.1 0.2 5.8 2.2 10.6 6.4 13.6 11.8 3 5.5 4 11.8 2.8 17.9-0.6 2.6-1.5 5.1-2.8 7.3 3.6 2.1 6.6 5 8.7 8.6zm-28-25.9c4.8 3.6 8.6 8.4 11.1 13.9 1.2-1.7 2-3.6 2.4-5.7q0.3-1.7 0.4-3.5c-0.1-3.4-1.1-6.8-3.1-9.7-1.9-2.9-4.7-5.1-7.9-6.4-3.3-1.3-6.8-1.6-10.2-0.9-3.4 0.7-6.5 2.5-8.9 5 5.9 1.1 11.5 3.6 16.2 7.3z"/>
		<path id="&lt;Path&gt;" class="s1" d="m1101.9 442.5c1.2-1.7 2-3.6 2.4-5.7q0.3-1.7 0.4-3.5c-0.1-3.4-1.1-6.8-3.1-9.7-1.9-2.9-4.7-5.1-7.9-6.4-3.3-1.3-6.8-1.6-10.2-0.9-3.4 0.7-6.5 2.5-8.9 5-4-1-8.4-1.1-10.2-1.1 3.2-5.4 8.1-9.5 14-11.5 5.8-2.1 12.2-2 18.1 0.2 5.8 2.2 10.6 6.4 13.6 11.8 3 5.5 4 11.8 2.8 17.9-0.6 2.6-1.5 5.1-2.8 7.3-2.2-1.4-6.4-2.8-8.2-3.4z"/>
		<path id="&lt;Path&gt;" class="s2" d="m1129.6 430.3c0.8 0.8 1.3 1.9 1.3 3 0 1.2-0.5 2.3-1.3 3.1-0.8 0.9-1.9 1.3-3.1 1.3h-4.3c-1.2 0-2.3-0.4-3.1-1.3-0.9-0.8-1.3-1.9-1.3-3.1 0-1.1 0.4-2.2 1.3-3 0.8-0.9 1.9-1.3 3.1-1.3h4.3c1.2 0 2.3 0.4 3.1 1.3z"/>
		<path id="&lt;Path&gt;" class="s3" d="m1084.1 401.4c-0.9-0.8-1.3-1.9-1.3-3.1v-4.3c0-1.2 0.4-2.3 1.3-3.1 0.8-0.8 1.9-1.3 3.1-1.3 1.1 0 2.2 0.5 3 1.3 0.9 0.8 1.3 1.9 1.3 3.1v4.3c0 1.2-0.4 2.3-1.3 3.1-0.8 0.9-1.9 1.3-3 1.3-1.2 0-2.3-0.4-3.1-1.3z"/>
		<path id="&lt;Path&gt;" class="s4" d="m1109.1 412.3c-0.7-0.5-1.3-1.2-1.6-2-0.4-0.7-0.5-1.6-0.3-2.4 0.1-0.9 0.5-1.7 1.1-2.3l3.1-3.1c0.8-0.8 1.9-1.2 3-1.1 1.1 0 2.1 0.4 2.9 1.2 0.8 0.8 1.3 1.8 1.4 2.9 0 1.1-0.4 2.2-1.1 3l-3 3.2q-0.6 0.6-1.4 1-0.8 0.3-1.7 0.3c-0.9 0-1.7-0.3-2.4-0.7z"/>
		<path id="&lt;Path&gt;" class="s5" d="m1057.6 408.5c-0.7-0.9-1-2-0.9-3.1 0.1-1.1 0.6-2.2 1.4-2.9 0.9-0.8 2-1.2 3.1-1.1 1.1 0 2.2 0.5 3 1.3l2.9 3q0.6 0.6 0.8 1.4 0.3 0.9 0.3 1.7-0.1 0.9-0.4 1.7-0.4 0.8-1.1 1.4c-0.8 0.7-1.8 1.1-2.9 1.1q-0.9 0-1.8-0.4-0.8-0.4-1.4-1.1z"/>
	</g>
</svg>