<svg xmlns="http://www.w3.org/2000/svg" version="1.2" viewBox="742.6 698.39 113.7 122.51">
	<title>Icons Weather-ai</title>
	<defs>
		<linearGradient id="g1" x1="799.5" y1="820.9" x2="799.5" y2="698.4" gradientUnits="userSpaceOnUse">
			<stop offset="0" stop-color="#909fd0"/>
			<stop offset="1" stop-color="#c3d0ea"/>
		</linearGradient>
		<linearGradient id="g2" x1="792.8" y1="820.9" x2="792.8" y2="742.2" gradientUnits="userSpaceOnUse">
			<stop offset="0" stop-color="#fbb43d"/>
			<stop offset="1" stop-color="#f5d86c"/>
		</linearGradient>
	</defs>
	<style>
		.s0 { fill: url(#g1) } 
		.s1 { fill: url(#g2) } 
	</style>
	<g id="Layer 1">
		<path id="&lt;Compound Path&gt;" fill-rule="evenodd" class="s0" d="m850.4 729.1c3.7 4.3 5.8 9.7 5.9 15.3-0.3 6.6-3.2 12.9-8.1 17.4-4.9 4.5-11.4 6.9-18.1 6.6h-4.4c-1.1 0-2.2-0.4-3.1-1.3-0.8-0.8-1.3-1.9-1.3-3.1 0-1.1 0.5-2.2 1.3-3.1 0.9-0.8 2-1.2 3.1-1.2h4.4c4.3 0.2 8.6-1.2 11.9-4.1 3.3-2.9 5.3-6.9 5.6-11.2-0.2-4-1.9-7.7-4.7-10.5-2.7-2.8-6.4-4.5-10.4-4.7-0.8-0.1-1.5-0.4-2.2-1-0.6-0.5-1.1-1.2-1.4-2-2.3-5.8-6.4-10.7-11.7-14.1-5.3-3.4-11.5-5.2-17.7-4.9-16.9 0-30.7 11.7-30.7 26.2 0 1.2-0.4 2.3-1.2 3.1-0.9 0.8-2 1.3-3.1 1.3-3.2-0.3-6.4 0.7-8.8 2.8-2.5 2-4 5-4.4 8.1 0.4 3.2 1.9 6.1 4.4 8.2 2.4 2 5.6 3 8.8 2.8h10.1l3-14.1c0.2-1 0.8-1.9 1.6-2.5 0.8-0.6 1.8-1 2.8-0.9h21.8q1.1 0 2 0.5 0.9 0.5 1.5 1.3 0.5 0.9 0.7 1.9 0.1 1-0.2 2l-6.7 20.5h11.5c0.8 0 1.6 0.3 2.3 0.7 0.7 0.4 1.2 1.1 1.6 1.8 0.3 0.7 0.5 1.5 0.4 2.2 0 0.8-0.3 1.5-0.7 2.2l-30.6 43.7q-0.7 0.9-1.6 1.4-1 0.5-2 0.5-0.9 0-1.7-0.3c-0.9-0.4-1.7-1-2.2-1.9-0.4-0.8-0.6-1.8-0.5-2.8l3.6-25.4h-8q-1 0-1.9-0.4-0.9-0.4-1.5-1.2-0.7-0.8-0.9-1.7-0.3-1-0.1-2l3.9-16.8h-8.2c-5.5 0.3-10.9-1.6-15-5.3-4.1-3.7-6.6-8.9-6.9-14.4 0.2-4.8 2.1-9.3 5.4-12.9 3.2-3.5 7.6-5.8 12.4-6.4 2.2-17.4 18.9-31 39.1-31 7.6-0.2 15.2 1.8 21.7 5.8 6.6 4 11.8 9.8 15.1 16.7 5.5 1.1 10.5 4 14.1 8.2zm-71.6 52.4h7.5q1 0 1.9 0.4 0.8 0.4 1.5 1.1 0.6 0.8 0.9 1.7 0.3 0.9 0.1 1.8l-1.8 12.5 15.3-21.8h-9.1q-1 0-2-0.5-0.9-0.5-1.5-1.3-0.7-0.9-0.8-1.9-0.2-1.1 0.1-2.1l6.7-20.5h-12.1z"/>
		<path id="&lt;Compound Path&gt;" fill-rule="evenodd" class="s1" d="m777.6 745.6c0.2-1 0.8-1.9 1.6-2.5 0.8-0.6 1.8-1 2.8-0.9h21.8q1.1 0 2 0.5 0.9 0.5 1.5 1.3 0.5 0.9 0.7 1.9 0.1 1-0.2 2l-6.7 20.5h11.5c0.8 0 1.6 0.3 2.3 0.7 0.7 0.4 1.2 1.1 1.6 1.8 0.3 0.7 0.5 1.5 0.4 2.2 0 0.8-0.3 1.5-0.7 2.2l-30.6 43.7q-0.7 0.9-1.6 1.4-1 0.5-2 0.5-0.9 0-1.7-0.3c-0.9-0.4-1.7-1-2.2-1.9-0.4-0.8-0.6-1.8-0.5-2.8l3.6-25.4h-8q-1 0-1.9-0.4-0.9-0.4-1.5-1.2-0.7-0.7-0.9-1.7-0.3-1-0.1-2l3.9-16.8zm20 5.4h-12.2l-6.7 30.6h7.6q1 0 1.8 0.4 0.9 0.4 1.5 1.1 0.7 0.7 0.9 1.6 0.3 0.9 0.2 1.9l-1.9 12.5 15.4-21.9h-9.1q-1.1 0-2-0.5-1-0.5-1.6-1.3-0.6-0.9-0.8-1.9-0.1-1 0.2-2z"/>
	</g>
</svg>