<svg version="1.2" xmlns="http://www.w3.org/2000/svg" viewBox="0 0 1600 1200" width="1600" height="1200">
	<title>Icons Weather-ai</title>
	<defs>
		<linearGradient id="g1" x1="1010.6" y1="706.9" x2="1010.6" y2="813.2" gradientUnits="userSpaceOnUse">
			<stop offset="0" stop-color="#c9d3eb"/>
			<stop offset="1" stop-color="#8ec9ed"/>
		</linearGradient>
	</defs>
	<style>
		.s0 { fill: url(#g1) } 
	</style>
	<g id="Layer 1">
		<path id="&lt;Path&gt;" class="s0" d="m1126.1 766q0.5 0.5 0.8 1.3 0.4 0.7 0.4 1.6 0 0.8-0.4 1.5-0.3 0.8-0.8 1.4-0.6 0.6-1.4 0.9-0.7 0.3-1.5 0.3-0.9 0-1.6-0.3-0.8-0.3-1.4-0.9l-6.9-7h-6.5l7.3 9.8q0.5 0.6 0.7 1.4 0.2 0.8 0.1 1.6-0.1 0.8-0.5 1.5-0.4 0.7-1.1 1.2c-0.7 0.6-1.5 0.8-2.4 0.8q-1 0-1.9-0.4-0.8-0.4-1.4-1.2l-11.1-14.7h-10.2l-3.9 6.4c0.2 0.3 0.2 0.3 0.2 0.3l5.8 8.4 18.4 0.9c1.1 0 2.1 0.4 2.9 1.2 0.7 0.7 1.2 1.8 1.2 2.9 0 1.1-0.5 2.1-1.2 2.9-0.8 0.7-1.8 1.2-2.9 1.2h-0.1l-12.3-0.6 3.7 5.4 9.7 1.8c1.1 0.1 2.1 0.6 2.8 1.5 0.7 0.8 1.1 1.9 0.9 3-0.1 1.1-0.6 2.1-1.4 2.8-0.9 0.7-1.9 1-3 0.9q-0.4 0-0.8 0l-7.3-1.4-1.4 7.4c-0.2 0.9-0.7 1.8-1.5 2.4-0.7 0.6-1.7 0.9-2.6 0.9h-0.8q-0.8-0.2-1.5-0.6-0.7-0.5-1.1-1.1-0.5-0.7-0.7-1.5-0.1-0.8 0-1.6l1.9-9.8-3.7-5.3-4.1 11.6c-0.3 0.9-0.8 1.6-1.6 2.1-0.7 0.5-1.6 0.7-2.5 0.7q-0.6 0-1.3-0.3c-1-0.3-1.8-1.1-2.3-2-0.5-1-0.5-2.1-0.2-3.1l6-17.5-5.4-7.9h-11.5l-5.3 7.9 6 17.4c0.3 1.1 0.3 2.2-0.2 3.2-0.5 0.9-1.3 1.7-2.4 2q-0.6 0.3-1.3 0.3c-0.8 0-1.7-0.3-2.3-0.8-0.8-0.5-1.3-1.2-1.5-2l-4.1-11.6-4 5.5 1.9 9.7q0.1 0.8 0 1.6-0.2 0.8-0.7 1.5-0.4 0.7-1.1 1.1-0.7 0.4-1.5 0.6h-0.8c-0.9 0-1.9-0.3-2.6-0.9-0.8-0.6-1.3-1.5-1.5-2.4l-1.4-7.4-7.3 1.4q-0.4 0.1-0.8 0c-1.1 0.1-2.1-0.2-3-0.9-0.8-0.7-1.4-1.7-1.5-2.8-0.1-1.1 0.3-2.2 1-3 0.7-0.8 1.7-1.4 2.8-1.5l9.7-1.8 3.6-5.4-12.3 0.6c-1.1 0-2.1-0.4-2.9-1.2-0.8-0.8-1.2-1.8-1.2-2.9 0-1.1 0.4-2.1 1.2-2.9 0.8-0.8 1.8-1.2 2.9-1.2l18.3-0.8 5.5-7.9-4.3-7.4h-10.3l-11 14.7q-0.6 0.8-1.5 1.2-0.8 0.4-1.8 0.4c-0.9 0-1.7-0.2-2.5-0.8-0.8-0.6-1.4-1.6-1.6-2.7-0.1-1 0.2-2.1 0.8-3l7.4-9.8h-6.5l-7 7q-0.6 0.6-1.3 0.9-0.8 0.3-1.6 0.3-0.8 0-1.6-0.3-0.7-0.3-1.3-0.9-0.6-0.6-0.9-1.4-0.3-0.7-0.3-1.5 0-0.9 0.3-1.6 0.3-0.8 0.9-1.3l5.3-5.3-5.3-5.3c-0.8-0.8-1.2-1.8-1.2-2.9 0-1.1 0.4-2.1 1.2-2.9 0.8-0.8 1.8-1.2 2.9-1.2 1.1 0 2.1 0.4 2.9 1.2l7 7h6.5l-7.4-10.1c-0.6-0.9-0.9-1.9-0.8-3 0.2-1.1 0.8-2.1 1.6-2.7 0.9-0.7 2-0.9 3.1-0.8 1.1 0.2 2 0.7 2.7 1.6l11 14.7h10l3.8-8.1-5.4-8.2-18.4-0.9c-1.1 0-2.1-0.4-2.9-1.2-0.8-0.7-1.2-1.8-1.2-2.8 0-1.1 0.4-2.2 1.2-2.9 0.8-0.8 1.8-1.2 2.9-1.2l12.3 0.5-3.7-5.3-9.7-1.9c-1.1-0.2-2-0.8-2.7-1.7-0.6-0.9-0.8-2.1-0.6-3.1 0.2-1.1 0.8-2.1 1.7-2.7q0.7-0.5 1.5-0.6 0.8-0.2 1.7-0.1l7.5 1.4 0.9-7.1q0.2-0.8 0.6-1.5 0.5-0.7 1.1-1.2 0.7-0.4 1.5-0.6 0.9-0.2 1.7 0 0.8 0.1 1.5 0.6 0.7 0.4 1.1 1.1 0.5 0.7 0.7 1.5 0.2 0.8 0 1.6l-1.8 9.7 3.6 5.4 4.1-11.6c0.3-1 1-1.9 2-2.4 1-0.6 2.1-0.7 3.2-0.3 1 0.3 1.9 1 2.4 2 0.5 0.9 0.6 2.1 0.3 3.1l-5.9 17.5 5.7 8.4c0 0.1 0 0.4 0 0.4h11.8l5-7.7-6.3-18.4q-0.3-0.8-0.3-1.6 0-0.9 0.3-1.6 0.4-0.8 1-1.4 0.6-0.6 1.4-0.8 0.9-0.3 1.7-0.2 0.8 0 1.6 0.4 0.7 0.4 1.3 1.1 0.5 0.7 0.7 1.5l4.1 11.8 3.4-5.7-1.9-9.8c-0.2-1.1 0.1-2.2 0.7-3.1 0.6-0.9 1.6-1.5 2.7-1.7 1-0.2 2.2 0 3.1 0.6 0.9 0.7 1.5 1.6 1.7 2.7l1.4 7.3 7.4-1.4c1.1-0.2 2.2 0.1 3.1 0.7 0.9 0.6 1.5 1.6 1.7 2.7 0.2 1.1 0 2.2-0.6 3.1-0.7 0.9-1.6 1.5-2.7 1.7l-9.6 1.8-3.4 5.4 11.9-0.5q0.8-0.1 1.6 0.2 0.8 0.3 1.4 0.9 0.6 0.6 1 1.3 0.3 0.8 0.3 1.7c0 1-0.4 2-1.2 2.8-0.7 0.7-1.7 1.2-2.7 1.2l-17.5 0.9-6.6 10.6q-0.2 0.3-0.5 0.6-0.5 0.4-1.2 0.8h-0.2q-0.7 0.2-1.5 0.2h-13.7l-3.8 8.2 4.7 8.2h9.3l5.8-10c0.4-0.8 1.2-1.4 2-1.7 0.9-0.3 1.8-0.3 2.7-0.1q0.6-0.2 1.2-0.2h10.2l11.1-14.8q0.5-0.6 1.2-1 0.7-0.4 1.5-0.5 0.8-0.2 1.6 0 0.8 0.2 1.4 0.7 0.7 0.5 1.1 1.2 0.4 0.7 0.5 1.5 0.1 0.8-0.1 1.6-0.2 0.8-0.7 1.5l-7.3 9.8h6.5l6.9-7c0.8-0.8 1.9-1.2 3-1.2 1 0 2.1 0.4 2.9 1.2 0.7 0.8 1.2 1.8 1.2 2.9 0 1.1-0.5 2.1-1.2 2.9l-5.4 5.3z"/>
	</g>
</svg>