<svg xmlns="http://www.w3.org/2000/svg" version="1.2" viewBox="202.6 698.39 114.7 123.51">
	<title>Icons Weather-ai</title>
	<defs>
		<linearGradient id="g1" x1="200.6" y1="698.6" x2="200.6" y2="768.8" gradientUnits="userSpaceOnUse">
			<stop offset="0" stop-color="#909fd0"/>
			<stop offset="1" stop-color="#c3d0ea"/>
		</linearGradient>
		<linearGradient id="g2" x1="224.7" y1="821.9" x2="224.7" y2="786.6" gradientUnits="userSpaceOnUse">
			<stop offset="0" stop-color="#70a7d9"/>
			<stop offset="1" stop-color="#3190ce"/>
		</linearGradient>
		<linearGradient id="g3" x1="295.1" y1="821.9" x2="295.1" y2="786.6" gradientUnits="userSpaceOnUse">
			<stop offset="0" stop-color="#70a7d9"/>
			<stop offset="1" stop-color="#3190ce"/>
		</linearGradient>
		<linearGradient id="g4" x1="259.9" y1="813.1" x2="259.9" y2="777.8" gradientUnits="userSpaceOnUse">
			<stop offset="0" stop-color="#70a7d9"/>
			<stop offset="1" stop-color="#3190ce"/>
		</linearGradient>
	</defs>
	<style>
		.s0 { fill: url(#g1) } 
		.s1 { fill: url(#g2) } 
		.s2 { fill: url(#g3) } 
		.s3 { fill: url(#g4) } 
	</style>
	<g id="Layer 1">
		<path id="&lt;Path&gt;" class="s0" d="m311.3 729.4c3.7 4.3 5.8 9.7 6 15.3-0.3 6.7-3.3 13.1-8.3 17.6-4.9 4.6-11.5 7-18.2 6.7h-30.9c-1.1 0-2.3-0.5-3.1-1.3-0.8-0.8-1.3-2-1.3-3.1 0-1.2 0.5-2.3 1.3-3.2 0.8-0.8 2-1.2 3.1-1.2h30.9c4.4 0.2 8.7-1.2 12-4.1 3.3-2.9 5.3-7 5.6-11.4-0.2-3.9-1.9-7.7-4.7-10.5-2.8-2.8-6.5-4.5-10.4-4.8-0.9-0.1-1.6-0.4-2.3-0.9-0.6-0.6-1.1-1.2-1.4-2-2.4-5.9-6.5-10.9-11.8-14.3-5.3-3.5-11.5-5.2-17.9-5-17 0-30.8 11.9-30.8 26.5 0 1.2-0.5 2.3-1.3 3.1-0.9 0.8-2 1.3-3.2 1.3-3.2-0.3-6.3 0.8-8.8 2.8-2.5 2.1-4.1 5-4.4 8.2 0.3 3.2 1.9 6.2 4.4 8.2 2.5 2.1 5.6 3.1 8.8 2.9h17.7c1.2 0 2.3 0.4 3.1 1.2 0.8 0.9 1.3 2 1.3 3.2 0 1.1-0.5 2.3-1.3 3.1-0.8 0.8-1.9 1.3-3.1 1.3h-17.7c-5.5 0.3-10.9-1.7-15.1-5.4-4.1-3.7-6.6-8.9-6.9-14.5 0.2-4.8 2.1-9.4 5.4-13 3.3-3.5 7.7-5.8 12.5-6.5 2.3-17.5 19.1-31.2 39.4-31.2 7.8-0.2 15.4 1.8 22 5.8 6.6 4.1 11.8 9.9 15.1 16.9 5.6 1.1 10.6 4 14.3 8.3z"/>
		<path id="&lt;Compound Path&gt;" fill-rule="evenodd" class="s1" d="m236.1 815.4c-1.3 2.3-3.3 4.1-5.7 5.2-1.8 0.9-3.8 1.3-5.8 1.3-1.9 0-3.9-0.4-5.7-1.3-2.4-1.1-4.4-2.9-5.7-5.2-4.4-7.7-0.6-20 8.6-27.7 0.8-0.7 1.8-1.1 2.8-1.1 1.1 0 2.1 0.4 2.9 1.1 9.2 7.7 13 20 8.6 27.7zm-7.7-11.7c-0.7-2.4-2-4.6-3.8-6.4-4.4 5.2-5.2 11.4-3.7 13.8 0.5 0.7 1.1 1.2 1.8 1.5q0.9 0.5 2 0.5 1 0 2-0.5c0.7-0.3 1.3-0.8 1.7-1.5 0.7-2.4 0.7-5 0-7.4z"/>
		<path id="&lt;Compound Path&gt;" fill-rule="evenodd" class="s2" d="m306.5 815.4c-1.3 2.3-3.3 4.1-5.7 5.2-1.8 0.9-3.8 1.3-5.8 1.3-2 0-4-0.4-5.8-1.3-2.4-1.1-4.4-2.9-5.7-5.2-4.1-7.7-0.3-19.9 8.8-27.7 0.8-0.7 1.9-1.1 2.9-1.1 1.1 0 2.1 0.4 2.9 1.1 9.1 7.7 12.9 20 8.4 27.7zm-7.5-11.7c-0.7-2.4-2-4.6-3.7-6.4-4.4 5.2-5.3 11.2-3.8 13.8 0.4 0.7 1 1.2 1.7 1.5q1 0.5 2 0.5 1.1 0 2-0.5c0.8-0.3 1.4-0.8 1.8-1.5 0.6-2.4 0.6-5 0-7.4z"/>
		<path id="&lt;Compound Path&gt;" fill-rule="evenodd" class="s3" d="m271.4 806.6c-1.3 2.3-3.3 4.1-5.7 5.2-1.8 0.8-3.8 1.3-5.8 1.3-2 0-3.9-0.5-5.7-1.3-2.4-1.1-4.4-2.9-5.7-5.2-4.4-7.7-0.6-19.9 8.6-27.7 0.8-0.7 1.8-1.1 2.8-1.1 1.1 0 2.1 0.4 2.9 1.1 9.2 7.7 13 20 8.6 27.7zm-7.7-11.7c-0.7-2.4-2-4.7-3.7-6.4-4.3 5.2-5.3 11.2-3.8 13.8 0.4 0.6 1 1.2 1.7 1.5q1 0.4 2.1 0.4 1 0 2-0.4c0.7-0.3 1.3-0.9 1.7-1.5 0.7-2.5 0.6-5 0-7.4z"/>
	</g>
</svg>