<svg xmlns="http://www.w3.org/2000/svg" version="1.2" viewBox="198.4 378.4 122.5 122.5">
	<title>Icons Weather-ai</title>
	<defs>
		<linearGradient id="g1" x1="253.3" y1="378.4" x2="253.3" y2="395.9" gradientUnits="userSpaceOnUse">
			<stop offset="0" stop-color="#f9c46c"/>
			<stop offset="1" stop-color="#f16d53"/>
		</linearGradient>
		<linearGradient id="g2" x1="253.3" y1="483.4" x2="253.3" y2="500.9" gradientUnits="userSpaceOnUse">
			<stop offset="0" stop-color="#f9c46c"/>
			<stop offset="1" stop-color="#f16d53"/>
		</linearGradient>
		<linearGradient id="g3" x1="196.4" y1="435.3" x2="196.4" y2="444" gradientUnits="userSpaceOnUse">
			<stop offset="0" stop-color="#f9c46c"/>
			<stop offset="1" stop-color="#f16d53"/>
		</linearGradient>
		<linearGradient id="g4" x1="301.4" y1="435.3" x2="301.4" y2="444" gradientUnits="userSpaceOnUse">
			<stop offset="0" stop-color="#f9c46c"/>
			<stop offset="1" stop-color="#f16d53"/>
		</linearGradient>
		<linearGradient id="g5" x1="218.4" y1="401.3" x2="218.4" y2="478.9" gradientUnits="userSpaceOnUse">
			<stop offset="0" stop-color="#f9c46c"/>
			<stop offset="1" stop-color="#f16d53"/>
		</linearGradient>
		<linearGradient id="g6" x1="287.3" y1="394.8" x2="287.3" y2="410" gradientUnits="userSpaceOnUse">
			<stop offset="0" stop-color="#f9c46c"/>
			<stop offset="1" stop-color="#f16d53"/>
		</linearGradient>
		<linearGradient id="g7" x1="213.1" y1="469.3" x2="213.1" y2="484.2" gradientUnits="userSpaceOnUse">
			<stop offset="0" stop-color="#f9c46c"/>
			<stop offset="1" stop-color="#f16d53"/>
		</linearGradient>
		<linearGradient id="g8" x1="213.3" y1="395.3" x2="213.3" y2="410" gradientUnits="userSpaceOnUse">
			<stop offset="0" stop-color="#f9c46c"/>
			<stop offset="1" stop-color="#f16d53"/>
		</linearGradient>
		<linearGradient id="g9" x1="287.3" y1="469.3" x2="287.3" y2="484.2" gradientUnits="userSpaceOnUse">
			<stop offset="0" stop-color="#f9c46c"/>
			<stop offset="1" stop-color="#f16d53"/>
		</linearGradient>
	</defs>
	<style>
		.s0 { fill: url(#g1) } 
		.s1 { fill: url(#g2) } 
		.s2 { fill: url(#g3) } 
		.s3 { fill: url(#g4) } 
		.s4 { fill: url(#g5) } 
		.s5 { fill: url(#g6) } 
		.s6 { fill: url(#g7) } 
		.s7 { fill: url(#g8) } 
		.s8 { fill: url(#g9) } 
	</style>
	<g id="Layer 1">
		<path id="&lt;Path&gt;" class="s0" d="m256.6 394.6c-0.9-0.8-1.3-1.9-1.3-3.1v-8.7c0-1.2 0.4-2.3 1.3-3.1 0.8-0.8 1.9-1.3 3-1.3 1.2 0 2.3 0.5 3.1 1.3 0.9 0.8 1.3 1.9 1.3 3.1v8.7c0 1.2-0.4 2.3-1.3 3.1-0.8 0.8-1.9 1.3-3.1 1.3-1.1 0-2.2-0.5-3-1.3z"/>
		<path id="&lt;Path&gt;" class="s1" d="m262.7 484.7c0.9 0.8 1.3 1.9 1.3 3.1v8.7c0 1.2-0.4 2.3-1.3 3.1-0.8 0.8-1.9 1.3-3.1 1.3-1.1 0-2.2-0.5-3-1.3-0.9-0.8-1.3-1.9-1.3-3.1v-8.7c0-1.2 0.4-2.3 1.3-3.1 0.8-0.8 1.9-1.3 3-1.3 1.2 0 2.3 0.5 3.1 1.3z"/>
		<path id="&lt;Path&gt;" class="s2" d="m214.6 436.6c0.8 0.8 1.3 1.9 1.3 3 0 1.2-0.5 2.3-1.3 3.1-0.8 0.9-1.9 1.3-3.1 1.3h-8.7c-1.2 0-2.3-0.4-3.1-1.3-0.8-0.8-1.3-1.9-1.3-3.1 0-1.1 0.5-2.2 1.3-3 0.8-0.9 1.9-1.3 3.1-1.3h8.7c1.2 0 2.3 0.4 3.1 1.3z"/>
		<path id="&lt;Path&gt;" class="s3" d="m319.6 436.6c0.8 0.8 1.3 1.9 1.3 3 0 1.2-0.5 2.3-1.3 3.1-0.8 0.9-1.9 1.3-3.1 1.3h-8.7c-1.2 0-2.3-0.4-3.1-1.3-0.8-0.8-1.3-1.9-1.3-3.1 0-1.1 0.5-2.2 1.3-3 0.8-0.9 1.9-1.3 3.1-1.3h8.7c1.2 0 2.3 0.4 3.1 1.3z"/>
		<path id="&lt;Path&gt;" class="s4" d="m290.5 460.2q0.4 0.7 0.5 1.6 0.1 0.9-0.1 1.7-0.3 0.8-0.8 1.5-1.7 2-3.6 3.8c-6.9 6.3-15.8 10-25.1 10.4-9.4 0.4-18.6-2.6-25.9-8.3-7.4-5.8-12.5-14-14.3-23.2-1.9-9.2-0.4-18.7 4.1-26.9 4.6-8.2 11.9-14.5 20.6-17.8 8.8-3.3 18.4-3.3 27.2-0.1 8.8 3.1 16.2 9.3 20.9 17.5 4.6 8.1 6.2 17.6 4.5 26.8-0.3 1.2-0.9 2.2-1.9 2.9-1 0.6-2.2 0.9-3.3 0.7-1.2-0.3-2.2-0.9-2.9-1.9-0.7-1-0.9-2.2-0.7-3.3 1.4-7.2 0.1-14.6-3.5-20.9-3.6-6.3-9.4-11.2-16.2-13.6-6.9-2.5-14.4-2.4-21.2 0.1-6.8 2.6-12.5 7.5-16 13.9-3.5 6.4-4.7 13.8-3.2 20.9 1.5 7.2 5.4 13.5 11.1 18 5.8 4.5 12.9 6.8 20.2 6.5 7.3-0.3 14.2-3.2 19.5-8.1q1.5-1.4 2.8-3 0.5-0.6 1.3-1.1 0.8-0.4 1.7-0.4 0.8-0.1 1.7 0.1 0.8 0.3 1.5 0.9 0.6 0.5 1.1 1.3z"/>
		<path id="&lt;Path&gt;" class="s5" d="m292 409.7q-0.8-0.4-1.4-1-0.6-0.6-1-1.4-0.3-0.8-0.3-1.7 0-0.9 0.3-1.7 0.4-0.8 1-1.4l6.2-6.2q0.6-0.7 1.4-1.1 0.8-0.4 1.7-0.4 1 0 1.8 0.3 0.9 0.3 1.5 1 0.7 0.6 1 1.5 0.3 0.8 0.3 1.8 0 0.9-0.4 1.7-0.4 0.8-1.1 1.4l-6.2 6.2q-0.6 0.6-1.4 1-0.8 0.3-1.7 0.3-0.9 0-1.7-0.3z"/>
		<path id="&lt;Path&gt;" class="s6" d="m225.6 469.3c1.2 0 2.3 0.5 3.1 1.3 0.8 0.8 1.3 1.9 1.3 3.1 0 1.2-0.5 2.3-1.3 3.1l-6.2 6.2c-0.8 0.8-1.9 1.2-3.1 1.2q-0.8 0-1.6-0.3-0.8-0.3-1.5-0.9c-0.8-0.9-1.2-2-1.2-3.1 0-1.2 0.4-2.3 1.2-3.1l6.2-6.2c0.8-0.8 1.9-1.3 3.1-1.3z"/>
		<path id="&lt;Path&gt;" class="s7" d="m216.3 402.5c-0.7-0.8-1.1-1.9-1-3 0-1.1 0.5-2.2 1.3-2.9 0.7-0.8 1.8-1.3 2.9-1.3 1.1-0.1 2.2 0.3 3 1l6.2 6.2q0.6 0.6 1 1.4 0.3 0.8 0.3 1.7 0 0.9-0.3 1.7-0.4 0.8-1 1.4-0.6 0.6-1.4 1-0.8 0.3-1.7 0.3-0.9 0-1.7-0.3-0.8-0.4-1.4-1z"/>
		<path id="&lt;Path&gt;" class="s8" d="m303 476.8c0.8 0.8 1.2 1.9 1.2 3.1 0 1.1-0.4 2.2-1.2 3.1q-0.7 0.6-1.5 0.9-0.8 0.3-1.6 0.3c-1.2 0-2.3-0.4-3.1-1.2l-6.2-6.2c-0.8-0.8-1.3-1.9-1.3-3.1 0-1.2 0.5-2.3 1.3-3.1 0.8-0.8 1.9-1.3 3.1-1.3 1.2 0 2.3 0.5 3.1 1.3z"/>
	</g>
</svg>