<svg version="1.2" xmlns="http://www.w3.org/2000/svg" viewBox="0 0 1600 1200" width="1600" height="1200">
	<title>Icons Weather-ai</title>
	<defs>
		<linearGradient id="g1" x1="530.5" y1="488.6" x2="530.5" y2="392.4" gradientUnits="userSpaceOnUse">
			<stop offset="0" stop-color="#f8f9fa"/>
			<stop offset="1" stop-color="#bdcae1"/>
		</linearGradient>
	</defs>
	<style>
		.s0 { fill: url(#g1) } 
	</style>
	<g id="Layer 1">
		<path id="&lt;Compound Path&gt;" fill-rule="evenodd" class="s0" d="m574.9 446.4c0.9 0.2 1.6 0.6 2.2 1.2 0.6 0.6 1.1 1.4 1.3 2.2 0.2 0.8 0.2 1.7 0 2.5-2.2 8.3-6.6 15.9-12.6 22-4.6 4.5-9.9 8.1-15.9 10.6-5.9 2.4-12.3 3.7-18.7 3.7-6.4 0-12.7-1.3-18.7-3.7-5.9-2.5-11.3-6.1-15.8-10.6-19.1-19.1-19.1-50.1 0-69.1 6.1-6.1 13.6-10.4 21.9-12.6 0.8-0.3 1.7-0.3 2.5 0 0.9 0.2 1.6 0.6 2.2 1.2 0.6 0.6 1.1 1.4 1.3 2.2 0.2 0.8 0.2 1.7 0 2.5-1.8 6.7-1.8 13.6 0 20.2 1.8 6.7 5.2 12.7 10.1 17.6 7.3 7.3 17.1 11.4 27.6 11.4 3.4 0 6.8-0.5 10.1-1.3 0.8-0.3 1.7-0.3 2.5 0zm-8.8 10.9c-7 0.6-14.1-0.4-20.7-2.8-6.6-2.5-12.6-6.3-17.6-11.3-5-5-8.8-11-11.3-17.6-2.4-6.7-3.4-13.7-2.8-20.8-3.8 1.9-7.2 4.4-10.1 7.3-15.2 15.2-15.2 40 0 55.3 3.6 3.6 7.9 6.5 12.7 8.5 4.7 1.9 9.8 2.9 14.9 2.9 5.2 0 10.3-1 15-2.9 4.7-2 9-4.9 12.7-8.5 2.9-3 5.3-6.4 7.2-10.1z"/>
	</g>
</svg>