<svg version="1.2" xmlns="http://www.w3.org/2000/svg" viewBox="0 0 1600 1200" width="1600" height="1200">
	<title>Icons Weather-ai</title>
	<defs>
		<linearGradient id="g1" x1="1318.8" y1="395.4" x2="1318.8" y2="455.2" gradientUnits="userSpaceOnUse">
			<stop offset="0" stop-color="#909fd0"/>
			<stop offset="1" stop-color="#c3d0ea"/>
		</linearGradient>
		<linearGradient id="g2" x1="1269.4" y1="414.2" x2="1269.4" y2="483.7" gradientUnits="userSpaceOnUse">
			<stop offset="0" stop-color="#8fcbee"/>
			<stop offset="1" stop-color="#d1dbef"/>
		</linearGradient>
	</defs>
	<style>
		.s0 { fill: url(#g1) } 
		.s1 { fill: url(#g2) } 
	</style>
	<g id="Layer 1">
		<path id="&lt;Path&gt;" class="s0" d="m1361.8 395.2c7.8-0.2 15.3 2.4 21.2 7.4 5.9 5 9.8 11.9 11 19.6 3.9 0.6 7.6 2.5 10.3 5.5 2.7 3.1 4.2 6.9 4.3 10.9-0.2 4.6-2.1 8.9-5.5 12.1-3.3 3.1-7.7 4.8-12.3 4.6h-15.6c-0.9 0-1.8-0.3-2.4-0.9-0.6-0.7-1-1.5-1-2.4 0-0.9 0.4-1.7 1-2.4 0.6-0.6 1.5-0.9 2.4-0.9h15.6c2.8 0.1 5.5-0.9 7.6-2.8 2.1-1.8 3.4-4.5 3.5-7.3-0.1-2.8-1.4-5.4-3.5-7.3-2.1-1.8-4.8-2.8-7.6-2.7-0.9 0-1.7-0.3-2.4-1-0.6-0.6-1-1.4-1-2.3 0-12.9-11.4-23.4-25.6-23.4-5.3-0.1-10.6 1.4-15 4.5-4.4 3-7.8 7.4-9.6 12.4-0.2 0.6-1 1.5-1 1.5l-15.4-1.5c0 0 6.1-3 10.7-3.9 2.6-5.9 6.8-11 12.2-14.5 5.4-3.5 11.7-5.3 18.1-5.2z"/>
		<path id="&lt;Path&gt;" class="s1" d="m1374.6 445c3.5 4.3 5.5 9.5 5.6 15-0.2 6.5-2.9 12.6-7.6 17.1-4.7 4.4-10.9 6.9-17.4 6.8h-29.4c-1 0-2-0.5-2.8-1.2-0.7-0.7-1.1-1.7-1.1-2.7 0-1.1 0.4-2 1.1-2.8 0.8-0.7 1.8-1.1 2.8-1.1h29.4c4.4 0.1 8.7-1.5 11.9-4.5 3.2-3 5.1-7.2 5.3-11.6-0.1-4-1.7-7.8-4.4-10.8-2.7-2.9-6.4-4.7-10.4-5.2-0.7-0.1-1.4-0.4-2-0.8-0.5-0.5-1-1.1-1.2-1.8-2.1-5.9-6-11-11.1-14.5-5.2-3.5-11.3-5.3-17.5-5.2-16.5 0-29.8 12.2-29.8 27.2 0 1-0.4 2-1.2 2.7-0.7 0.8-1.7 1.2-2.7 1.2-3.3-0.2-6.4 1-8.9 3.2-2.4 2.1-3.8 5.2-4 8.4 0.2 3.3 1.6 6.3 4 8.5 2.5 2.2 5.6 3.3 8.9 3.2h18.1c1.1 0 2.1 0.4 2.8 1.1 0.7 0.8 1.1 1.7 1.1 2.8 0 1-0.4 2-1.1 2.7-0.7 0.7-1.7 1.2-2.8 1.2h-18.1c-5.3 0.1-10.5-1.8-14.4-5.5-3.8-3.6-6.1-8.7-6.3-14 0.1-4.6 1.9-9.1 5-12.6 3.1-3.5 7.4-5.8 12-6.5 1.3-8.9 5.8-17 12.7-22.8 6.9-5.8 15.7-8.8 24.7-8.6 7.5-0.1 14.8 2 21.1 6.1 6.2 4.1 11.2 9.9 14.1 16.8 5.4 1.1 10.2 4 13.6 8.2z"/>
	</g>
</svg>