<svg xmlns="http://www.w3.org/2000/svg" version="1.2" viewBox="738.4 393.82 122.67 92.01">
	<title>Icons Weather-ai</title>
	<defs>
		<linearGradient id="g1" x1="799.7" y1="485.8" x2="799.7" y2="393.8" gradientUnits="userSpaceOnUse">
			<stop offset="0" stop-color="#8fcbee"/>
			<stop offset="1" stop-color="#d1dbef"/>
		</linearGradient>
		<linearGradient id="g2" x1="806.8" y1="393.8" x2="806.8" y2="448.6" gradientUnits="userSpaceOnUse">
			<stop offset="0" stop-color="#f8f9fa"/>
			<stop offset="1" stop-color="#bdcae1"/>
		</linearGradient>
	</defs>
	<style>
		.s0 { fill: url(#g1) } 
		.s1 { fill: url(#g2) } 
	</style>
	<g id="Layer 1">
		<path id="&lt;Compound Path&gt;" fill-rule="evenodd" class="s0" d="m861 437.4q-0.3 1.1-1 1.9c-3.2 4.1-7.4 7.4-12.2 9.3 2.8 3.8 4.3 8.4 4.4 13.1-0.4 6.7-3.3 13-8.2 17.5-4.9 4.5-11.4 6.9-18.1 6.6h-30.6c-1.2 0-2.3-0.4-3.1-1.3-0.8-0.8-1.3-1.9-1.3-3.1 0-1.1 0.5-2.2 1.3-3.1 0.8-0.8 1.9-1.2 3.1-1.2h30.6c4.3 0.2 8.6-1.2 11.9-4.1 3.3-2.9 5.3-6.9 5.6-11.3-0.2-3.9-1.9-7.6-4.7-10.4-2.7-2.8-6.4-4.5-10.4-4.7-0.8-0.1-1.5-0.5-2.2-1-0.6-0.5-1.1-1.2-1.4-2-2.3-5.8-6.4-10.7-11.7-14.1-5.3-3.4-11.5-5.2-17.7-4.9-16.9 0-30.6 11.7-30.6 26.2 0 1.2-0.5 2.3-1.3 3.1-0.9 0.8-2 1.3-3.1 1.3-3.2-0.3-6.4 0.7-8.8 2.8-2.5 2-4 4.9-4.3 8.1 0.3 3.2 1.8 6.1 4.3 8.2 2.4 2 5.6 3 8.8 2.8h17.5c1.1 0 2.2 0.4 3.1 1.2 0.8 0.9 1.3 2 1.3 3.1 0 1.2-0.5 2.3-1.3 3.1-0.9 0.9-2 1.3-3.1 1.3h-17.5c-5.5 0.3-10.9-1.6-15-5.3-4.1-3.7-6.6-8.9-6.9-14.4 0.2-4.8 2.1-9.3 5.4-12.9 3.2-3.5 7.6-5.8 12.4-6.4 2.2-17.4 18.9-31 39.1-31 4.5 0 9.1 0.7 13.4 2.1 0.9-5.9 3.5-11.3 7.6-15.6 4-4.2 9.3-7.2 15.1-8.4 0.7-0.1 1.4-0.1 2.1 0 0.8 0.2 1.4 0.6 2 1.1 0.5 0.5 0.9 1.1 1.1 1.8 0.2 0.7 0.3 1.5 0.1 2.2-1.1 7.2 0.4 14.6 4.3 20.8 3.9 6.2 9.9 10.7 17 12.7q1 0.3 1.8 1.1 0.8 0.7 1.1 1.7c0.2 0.7 0.2 1.4 0.1 2.1zm-18.7 4c2.3-0.7 4.4-1.7 6.4-3.1-6.3-3.1-11.6-7.9-15.4-13.8-3.7-5.9-5.8-12.8-5.9-19.8-3.1 1.7-5.6 4.1-7.4 7.1-1.8 3-2.8 6.4-2.8 9.9 6.7 3.8 12 9.6 15.1 16.6 3.1 0.8 6.1 2 8.8 3.8q0.6-0.5 1.4-0.7z"/>
		<path id="&lt;Path&gt;" class="s1" d="m861 437.4q-0.3 1.1-1 1.9c-3.2 4.1-7.4 7.4-12.2 9.3-1.8-2.6-5.2-5.4-6.7-6.5q0.6-0.5 1.4-0.7h-0.2c2.3-0.7 4.5-1.7 6.4-3.1-6.3-3.1-11.6-7.9-15.4-13.8-3.7-5.9-5.8-12.8-5.9-19.8-3.1 1.7-5.6 4.1-7.4 7.1-1.8 3-2.8 6.4-2.8 9.9-2.9-1.8-6.8-3.3-8.4-3.8 0.8-5.9 3.4-11.3 7.5-15.6 4-4.2 9.3-7.2 15.1-8.4 0.7-0.1 1.4-0.1 2.1 0 0.8 0.2 1.4 0.6 2 1.1 0.5 0.5 0.9 1.1 1.1 1.8 0.2 0.7 0.3 1.5 0.2 2.2-1.2 7.2 0.3 14.6 4.2 20.8 3.9 6.2 9.9 10.7 17 12.7q1 0.3 1.8 1.1 0.8 0.7 1.1 1.7c0.2 0.7 0.2 1.4 0.1 2.1z"/>
	</g>
</svg>