<svg xmlns="http://www.w3.org/2000/svg" version="1.2" viewBox="1282.6 718 114.7 83.1">
	<title>Icons Weather-ai</title>
	<defs>
		<linearGradient id="g1" x1="1280.6" y1="718" x2="1280.6" y2="748.6" gradientUnits="userSpaceOnUse">
			<stop offset="0" stop-color="#909fd0"/>
			<stop offset="1" stop-color="#c3d0ea"/>
		</linearGradient>
		<linearGradient id="g2" x1="1333.8" y1="735.5" x2="1333.8" y2="766.1" gradientUnits="userSpaceOnUse">
			<stop offset="0" stop-color="#909fd0"/>
			<stop offset="1" stop-color="#c3d0ea"/>
		</linearGradient>
		<linearGradient id="g3" x1="1301.1" y1="757.4" x2="1301.1" y2="766.1" gradientUnits="userSpaceOnUse">
			<stop offset="0" stop-color="#909fd0"/>
			<stop offset="1" stop-color="#c3d0ea"/>
		</linearGradient>
		<linearGradient id="g4" x1="1354.3" y1="770.5" x2="1354.3" y2="801.1" gradientUnits="userSpaceOnUse">
			<stop offset="0" stop-color="#909fd0"/>
			<stop offset="1" stop-color="#c3d0ea"/>
		</linearGradient>
		<linearGradient id="g5" x1="1280.6" y1="770.5" x2="1280.6" y2="779.2" gradientUnits="userSpaceOnUse">
			<stop offset="0" stop-color="#909fd0"/>
			<stop offset="1" stop-color="#c3d0ea"/>
		</linearGradient>
		<linearGradient id="g6" x1="1305.2" y1="788" x2="1305.2" y2="796.7" gradientUnits="userSpaceOnUse">
			<stop offset="0" stop-color="#909fd0"/>
			<stop offset="1" stop-color="#c3d0ea"/>
		</linearGradient>
		<linearGradient id="g7" x1="1280.6" y1="788" x2="1280.6" y2="796.7" gradientUnits="userSpaceOnUse">
			<stop offset="0" stop-color="#909fd0"/>
			<stop offset="1" stop-color="#c3d0ea"/>
		</linearGradient>
	</defs>
	<style>
		.s0 { fill: url(#g1) } 
		.s1 { fill: url(#g2) } 
		.s2 { fill: url(#g3) } 
		.s3 { fill: url(#g4) } 
		.s4 { fill: url(#g5) } 
		.s5 { fill: url(#g6) } 
		.s6 { fill: url(#g7) } 
	</style>
	<g id="Layer 1">
		<path id="&lt;Path&gt;" class="s0" d="m1283.8 747.3c-0.8-0.8-1.2-1.9-1.2-3.1 0-1.1 0.4-2.2 1.2-3 0.8-0.9 1.8-1.3 2.9-1.3h47.1c1.6 0 3.2-0.7 4.3-1.9 1.2-1.3 1.8-2.9 1.8-4.7 0-1.7-0.6-3.4-1.8-4.6-1.1-1.3-2.7-2-4.3-2h-6.1c-1.1 0-2.2-0.4-2.9-1.2-0.8-0.9-1.2-2-1.2-3.1 0-1.2 0.4-2.3 1.2-3.1 0.7-0.8 1.8-1.3 2.9-1.3h6.1c3.8 0 7.4 1.6 10.1 4.5 2.7 2.9 4.2 6.8 4.2 10.8 0 4.1-1.5 8-4.2 10.8-2.7 2.9-6.3 4.5-10.1 4.5h-47.1c-1.1 0-2.1-0.4-2.9-1.3z"/>
		<path id="&lt;Path&gt;" class="s1" d="m1373.9 743c-0.8-0.9-1.2-2-1.2-3.1 0-1.2 0.4-2.3 1.2-3.1 0.8-0.8 1.8-1.3 2.9-1.3h6.1c3.8 0 7.5 1.6 10.2 4.5 2.6 2.9 4.2 6.8 4.2 10.8 0 4.1-1.6 8-4.2 10.8-2.7 2.9-6.4 4.5-10.2 4.5h-43c-1.1 0-2.1-0.4-2.9-1.3-0.7-0.8-1.2-1.9-1.2-3.1 0-1.1 0.5-2.2 1.2-3 0.8-0.9 1.8-1.3 2.9-1.3h43c1.7 0 3.2-0.7 4.4-1.9 1.1-1.3 1.8-2.9 1.8-4.7 0-1.7-0.7-3.4-1.8-4.6-1.2-1.3-2.7-2-4.4-2h-6.1c-1.1 0-2.1-0.4-2.9-1.2z"/>
		<path id="&lt;Path&gt;" class="s2" d="m1323.6 757.4c1 0 2.1 0.4 2.8 1.3 0.8 0.8 1.3 1.9 1.3 3 0 1.2-0.5 2.3-1.3 3.1-0.7 0.9-1.8 1.3-2.8 1.3h-16.4c-1.1 0-2.2-0.4-2.9-1.3-0.8-0.8-1.2-1.9-1.2-3.1 0-1.1 0.4-2.2 1.2-3 0.7-0.9 1.8-1.3 2.9-1.3z"/>
		<path id="&lt;Path&gt;" class="s3" d="m1393.1 775c2.7 2.9 4.2 6.8 4.2 10.8 0 4.1-1.5 8-4.2 10.8-2.7 2.9-6.4 4.5-10.2 4.5h-6.1c-1.1 0-2.1-0.4-2.9-1.3-0.8-0.8-1.2-1.9-1.2-3.1 0-1.1 0.4-2.2 1.2-3 0.8-0.9 1.8-1.3 2.9-1.3h6.1c1.7 0 3.2-0.7 4.4-1.9 1.1-1.3 1.8-2.9 1.8-4.7 0-1.7-0.7-3.4-1.8-4.6-1.2-1.3-2.7-2-4.4-2h-22.5c-1.1 0-2.1-0.4-2.9-1.2-0.8-0.9-1.2-2-1.2-3.1 0-1.2 0.4-2.3 1.2-3.1 0.8-0.8 1.8-1.3 2.9-1.3h22.5c3.8 0 7.5 1.6 10.2 4.5z"/>
		<path id="&lt;Path&gt;" class="s4" d="m1346.9 771.8c0.8 0.8 1.2 1.9 1.2 3.1 0 1.1-0.4 2.2-1.2 3.1-0.7 0.8-1.8 1.2-2.9 1.2h-57.3c-1.1 0-2.1-0.4-2.9-1.2-0.8-0.9-1.2-2-1.2-3.1 0-1.2 0.4-2.3 1.2-3.1 0.8-0.8 1.8-1.3 2.9-1.3h57.3c1.1 0 2.2 0.5 2.9 1.3z"/>
		<path id="&lt;Path&gt;" class="s5" d="m1338.7 789.3c0.8 0.8 1.2 1.9 1.2 3.1 0 1.1-0.4 2.2-1.2 3.1-0.7 0.8-1.8 1.2-2.9 1.2h-24.5c-1.1 0-2.2-0.4-2.9-1.2-0.8-0.9-1.2-2-1.2-3.1 0-1.2 0.4-2.3 1.2-3.1 0.7-0.8 1.8-1.3 2.9-1.3h24.5c1.1 0 2.2 0.5 2.9 1.3z"/>
		<path id="&lt;Path&gt;" class="s6" d="m1297.8 789.3c0.8 0.8 1.2 1.9 1.2 3.1 0 1.1-0.4 2.2-1.2 3.1-0.8 0.8-1.8 1.2-2.9 1.2h-8.2c-1.1 0-2.1-0.4-2.9-1.2-0.8-0.9-1.2-2-1.2-3.1 0-1.2 0.4-2.3 1.2-3.1 0.8-0.8 1.8-1.3 2.9-1.3h8.2c1.1 0 2.1 0.5 2.9 1.3z"/>
	</g>
</svg>